<svg width="278" height="59" viewBox="0 0 278 59" fill="none" xmlns="http://www.w3.org/2000/svg">
<path d="M28.1865 39.5668L14.1112 25.4915L28.1865 11.4072V20.7997L23.4947 25.4915L28.1865 30.1833V39.5668ZM46.9895 1.96095V48.9862H0V1.99676L46.9895 1.96095ZM40.292 8.7121H6.71534V42.2709H40.292V8.7121Z" fill="white"/>
<g filter="url(#filter0_d)">
<path d="M73.9851 50.5621C73.8186 50.3696 73.6292 50.1982 73.421 50.0517C73.1345 49.8458 72.7584 49.604 72.3107 49.3354C71.8631 49.0668 71.4154 48.7803 70.8423 48.44C70.2693 48.0998 69.7679 47.8312 69.2127 47.5447C68.6576 47.2581 68.1651 46.9537 67.6727 46.694L66.3565 46.0046C65.9088 45.7629 65.5685 45.5927 65.3447 45.4942L64.9597 45.2883C64.8881 45.4047 64.8433 45.5032 64.8075 45.5659C64.7717 45.6285 64.8075 45.7181 64.7269 45.8524L64.6463 46.3896C64.6463 46.6135 64.6463 46.9448 64.5478 47.3924H64.2882V47.8222L63.6972 47.8759C63.5578 47.8907 63.42 47.9177 63.2853 47.9565V48.2341L62.3899 48.3594L61.611 48.4938C61.5771 48.549 61.5529 48.6095 61.5393 48.6728C61.5496 48.714 61.5496 48.757 61.5393 48.7982C60.9842 48.7982 60.4738 48.8877 59.9903 48.9504C59.5606 45.3689 59.1129 41.8232 58.6473 38.3133C58.1817 34.8034 57.734 31.2398 57.3042 27.6225L57.8952 27.4345C58.1246 27.3667 58.349 27.2829 58.5667 27.1837C58.7888 27.088 59.0042 26.9773 59.2114 26.8525C59.3894 26.7546 59.5474 26.624 59.677 26.4674L60.1963 26.5391C60.3857 26.5546 60.5741 26.5815 60.7604 26.6197C60.9347 26.6464 61.102 26.7073 61.2528 26.7987C61.3279 26.839 61.3943 26.8938 61.4481 26.9599C61.5018 27.026 61.542 27.102 61.5662 27.1837H61.7811C61.9064 28.3925 61.996 29.5475 62.0676 30.6399C62.1392 31.7323 62.2019 32.7888 62.2736 33.8006C62.3452 34.8124 62.4079 35.7704 62.4795 36.6927C62.5511 37.6149 62.6765 38.4834 62.8197 39.3788C62.8824 39.3788 63.1421 39.2714 63.5898 39.0923C64.0374 38.9132 64.6194 38.6983 65.291 38.4566C65.9625 38.2148 66.7415 37.9283 67.5652 37.6328C68.389 37.3373 69.2306 37.0777 70.0454 36.8359C70.8602 36.5942 71.6123 36.3793 72.3376 36.2271C72.923 36.074 73.5236 35.9869 74.1284 35.9674L74.388 36.3256C74.5044 36.4957 74.6298 36.6837 74.7462 36.8897C74.8626 37.0956 75.0058 37.2926 75.1043 37.4806C75.1907 37.6179 75.2599 37.7652 75.3103 37.9193L73.3046 38.761C72.6689 39.0386 72.0421 39.3251 71.4154 39.6564C70.7886 39.9877 70.1708 40.2652 69.5351 40.6234C68.8994 40.9815 68.2726 41.3486 67.6011 41.7516C67.6011 41.8948 67.7175 42.0828 67.9592 42.3156C68.2612 42.6097 68.5812 42.8849 68.9173 43.1394C69.3112 43.4438 69.7589 43.7841 70.2603 44.1422L71.8093 45.2167L73.3315 46.2643C73.8239 46.6045 74.2269 46.9268 74.6208 47.2134C75.3078 47.7846 76.1264 48.1754 77.0025 48.3505C77.0006 48.5928 77.0337 48.834 77.101 49.0668C77.1905 49.3229 77.2359 49.5924 77.2353 49.8637C76.9936 49.9443 76.6623 50.0517 76.2504 50.1681C75.9109 50.2907 75.5545 50.3601 75.1939 50.3741C74.8792 50.3841 74.5684 50.3032 74.2985 50.1413L74.0925 50.3203C74.045 50.3951 74.0087 50.4766 73.9851 50.5621Z" fill="#FBAA34"/>
</g>
<g filter="url(#filter1_d)">
<path d="M82.375 48.5654C82.1166 48.4341 81.8383 48.3463 81.5513 48.3057C81.4617 48.3057 81.4259 48.3057 81.4259 48.3863V48.4311C81.4259 48.5206 81.399 48.5654 81.3453 48.5654C81.2537 48.5587 81.1649 48.5312 81.0857 48.4848C80.9947 48.4122 80.908 48.3345 80.826 48.252L80.5842 47.9744C80.5313 47.8937 80.4891 47.8064 80.4589 47.7148H80.1724C80.1951 47.7729 80.2131 47.8328 80.2261 47.8938V47.9476C80.2261 48.0013 80.3425 48.1446 80.5663 48.3863H79.6889C79.1545 47.3227 78.6908 46.225 78.301 45.1003C77.9697 44.0974 77.7101 43.1662 77.5221 42.3335C77.4594 42.0291 77.3877 41.6531 77.3161 41.2054C77.2445 40.7577 77.1908 40.31 77.137 39.7459C77.0833 39.1818 77.0475 38.6715 77.0296 38.1253C77.0117 37.5791 77.0296 37.024 77.0296 36.5136C77.001 35.8934 77.0613 35.2722 77.2087 34.6691C77.3251 34.2751 77.4594 34.0782 77.5937 34.0782C77.728 34.0782 77.719 34.2214 77.7996 34.311C77.8001 34.2668 77.8099 34.2232 77.8284 34.1831C77.847 34.1429 77.8738 34.1072 77.9071 34.0782H78.1846C78.1846 33.8722 78.2563 33.7648 78.3906 33.7469H78.8562C79.335 33.7328 79.8112 33.8213 80.253 34.0065C80.4447 34.0785 80.6147 34.1987 80.7465 34.3555C80.8782 34.5124 80.9673 34.7006 81.0051 34.9019C81.0146 35.0898 81.0146 35.2781 81.0051 35.466C81.0051 35.7525 81.023 36.1196 81.0588 36.5673C81.0588 36.9971 81.0588 37.4627 81.1125 37.9999C81.1662 38.5371 81.1752 39.0206 81.1931 39.5131C81.211 40.0056 81.2468 40.4712 81.2647 40.9009C81.2826 41.3307 81.3364 41.6352 81.3722 41.8769C81.4528 42.5037 81.5781 43.1663 81.7303 43.8467C81.8825 44.5272 82.0348 45.145 82.1691 45.7449C82.3034 46.3448 82.4556 46.8731 82.5541 47.3298C82.6362 47.6224 82.6902 47.9222 82.7152 48.2251C82.7152 48.4132 82.6615 48.5027 82.5541 48.5027C82.4466 48.5027 82.375 48.4938 82.375 48.5654ZM80.6738 30.9533C79.821 31.5646 78.8038 31.9047 77.7548 31.9293C77.5611 31.9484 77.3656 31.9237 77.1827 31.8571C76.9998 31.7904 76.8343 31.6835 76.6983 31.5442C76.4622 31.2445 76.3443 30.8686 76.367 30.4877C76.3847 30.327 76.3847 30.1649 76.367 30.0042C76.3787 29.7143 76.433 29.4277 76.5282 29.1536C76.752 29.1088 77.0385 29.0193 77.4236 28.9029C77.7111 28.7977 78.0131 28.7373 78.3189 28.7238C78.4596 28.7207 78.5995 28.745 78.7308 28.7954L78.8114 28.7238C78.8483 28.6859 78.8759 28.6399 78.892 28.5895C78.941 28.6724 78.9829 28.7592 79.0173 28.8491C79.0443 28.9056 79.0806 28.957 79.1248 29.0014C79.1248 29.073 79.1248 29.1267 79.0711 29.1804L79.0173 29.2879C79.2785 29.0908 79.5877 28.9672 79.9127 28.9297C80.1903 28.9297 80.3514 29.1088 80.4052 29.467C80.411 29.8767 80.5154 30.279 80.7096 30.6399C80.7185 30.7832 80.6917 30.8817 80.6738 30.9533Z" fill="#FBAA34"/>
</g>
<g filter="url(#filter2_d)">
<path d="M89.2509 49.8458C88.4855 49.8057 87.7496 49.5375 87.1378 49.0758C86.5333 48.5809 86.0314 47.9726 85.6604 47.285C85.2551 46.5355 84.9539 45.7342 84.7651 44.9033C84.5776 44.0203 84.4845 43.1199 84.4875 42.2172C84.4841 41.5386 84.5441 40.8611 84.6666 40.1936C84.7606 39.5535 84.9258 38.9258 85.159 38.3223C85.3931 37.7657 85.6938 37.2396 86.0544 36.7554C86.3652 36.3101 86.757 35.9274 87.2095 35.6272C87.8183 35.2332 88.3466 34.9109 88.8122 34.6512C89.2544 34.4173 89.7121 34.2139 90.1821 34.0424C90.9821 33.7487 91.828 33.6001 92.6802 33.6036C93.3216 33.6105 93.9619 33.6614 94.5963 33.7558C94.4352 33.2992 94.3009 32.8605 94.1755 32.4217C94.0501 31.983 93.9964 31.6517 93.9427 31.3741C94.0457 31.2879 94.1335 31.185 94.2024 31.0697C94.3016 30.9638 94.3643 30.8289 94.3814 30.6847C94.3814 30.6131 94.3814 30.5593 94.2292 30.5235C94.1529 30.2286 94.0931 29.9297 94.0501 29.6282C93.9963 29.3056 93.9693 28.9792 93.9696 28.6522C93.9663 28.3518 93.9933 28.0518 94.0501 27.7568C94.1039 27.5061 94.3456 27.327 94.7754 27.2464V27.0405L95.1336 26.7809C95.263 26.6863 95.4136 26.6249 95.5723 26.6018C95.5685 26.6465 95.5685 26.6914 95.5723 26.7361C95.6121 26.8074 95.6451 26.8824 95.6708 26.9599L95.8319 27.1659C95.8495 27.1981 95.8754 27.2251 95.9069 27.244C95.9383 27.2629 95.9743 27.273 96.011 27.2733L95.9573 27.1659C95.9573 27.1659 96.0289 27.0942 96.1632 27.0405C96.1708 26.9463 96.1889 26.8532 96.217 26.7629H96.4229C96.4229 26.8077 96.4229 26.9062 96.5035 27.0405H96.7094C96.7592 26.8805 96.8284 26.7271 96.9154 26.5839H97.0944V26.5928C97.0944 26.5212 97.0944 26.4943 97.0944 26.4943H97.2466C97.252 26.4144 97.2702 26.3358 97.3004 26.2615C97.381 26.2615 97.4257 26.2615 97.4257 26.3332C97.4245 26.3538 97.4191 26.3739 97.4099 26.3924C97.4007 26.4109 97.3878 26.4273 97.372 26.4406C97.363 26.4636 97.363 26.4892 97.372 26.5122C97.4177 26.6076 97.4782 26.6952 97.5511 26.7719C97.6729 26.9003 97.8114 27.0118 97.963 27.1032C98.1956 27.6303 98.3755 28.1792 98.5002 28.7417C98.6793 29.4312 98.8494 30.2101 99.0195 31.0787C99.1896 31.9472 99.3597 32.8694 99.5388 33.8454C99.7179 34.8213 99.9238 35.8063 100.13 36.7912C100.336 37.7761 100.56 38.7521 100.801 39.6922C101.036 40.5524 101.32 41.3985 101.652 42.2261C101.813 42.6246 101.933 43.0387 102.01 43.4618C102.1 43.9094 102.189 44.3571 102.297 44.7153C102.387 45.0765 102.507 45.4298 102.655 45.7718C102.771 46.0366 102.986 46.2454 103.255 46.3538C103.428 46.4893 103.618 46.6035 103.819 46.6941C103.831 46.8248 103.813 46.9568 103.765 47.0791L103.693 47.1776C103.642 47.2113 103.596 47.2537 103.559 47.3029C103.502 47.4629 103.46 47.6277 103.434 47.7954C102.913 48.1764 102.288 48.3888 101.643 48.4042C101.455 48.4042 101.33 48.4042 101.285 48.3057C101.24 48.2073 101.195 48.1446 101.124 48.0282C100.794 48.2788 100.399 48.4281 99.9865 48.458C99.8255 48.4674 99.664 48.4674 99.503 48.458C99.3674 48.4303 99.2295 48.4153 99.0911 48.4132H98.7777C98.6882 48.1356 98.5897 47.7954 98.4644 47.3835C98.339 46.9716 98.2405 46.5508 98.1062 46.1031C97.9719 45.6554 97.8645 45.2077 97.7481 44.8227C97.6317 44.4377 97.5153 44.0348 97.4078 43.7483C97.006 44.6557 96.5329 45.53 95.9931 46.3628C95.1105 47.7407 93.7638 48.757 92.1967 49.228C91.2366 49.5269 90.2502 49.7337 89.2509 49.8458ZM90.7731 46.0225C91.0506 46.3807 91.3103 46.5598 91.5431 46.5598C91.7791 46.5275 92.0044 46.4412 92.2017 46.3077C92.3989 46.1741 92.5626 45.9969 92.6802 45.7897C93.1128 45.1988 93.4679 44.5549 93.7368 43.8736C94.0707 43.0941 94.3403 42.2886 94.5426 41.4651C94.7325 40.7184 94.8346 39.9522 94.847 39.1818C94.9281 38.3069 94.6896 37.4322 94.1755 36.7195C93.9758 36.4851 93.7273 36.297 93.4474 36.1687C93.1675 36.0403 92.8628 35.9747 92.5549 35.9764C91.8534 36.0164 91.1759 36.2453 90.594 36.639V36.818C90.2732 36.9194 89.977 37.0864 89.7242 37.3084C89.4715 37.5303 89.2676 37.8024 89.1256 38.1074C88.8214 38.7632 88.6713 39.4798 88.6868 40.2026C88.6855 40.7375 88.7364 41.2713 88.839 41.7963C88.9587 42.3256 89.1143 42.8461 89.3046 43.3543C89.4869 43.8575 89.7022 44.348 89.9493 44.8227C90.1838 45.2487 90.4597 45.6506 90.7731 46.0225Z" fill="#FBAA34"/>
</g>
<g filter="url(#filter3_d)">
<path d="M114.761 33.2813C114.686 33.1857 114.639 33.0709 114.626 32.95C114.96 32.9741 115.275 33.1097 115.522 33.335C115.781 33.541 115.999 33.7929 116.166 34.0782C116.336 34.3571 116.466 34.6585 116.551 34.9736C116.651 35.2492 116.723 35.5342 116.766 35.8242H116.247H115.862C115.768 35.8379 115.679 35.8748 115.602 35.9316C115.514 36.0007 115.444 36.0896 115.396 36.1913C115.322 36.3374 115.262 36.4903 115.217 36.6479C114.911 36.7251 114.612 36.8269 114.322 36.9524C114.058 37.0606 113.775 37.1154 113.489 37.1135H113.391C113.355 37.1055 113.319 37.1055 113.283 37.1135V37.0061C113.24 36.763 113.135 36.535 112.979 36.3435C112.747 36.0136 112.477 35.713 112.173 35.4481C111.854 35.1252 111.5 34.8398 111.117 34.5975C110.804 34.3824 110.439 34.2583 110.06 34.2394C109.863 34.2325 109.668 34.2789 109.496 34.3737C109.168 34.42 108.846 34.5042 108.538 34.6244C108.314 34.7318 108.207 34.8572 108.207 35.0094C108.207 35.1616 108.386 35.5108 108.744 35.8063C109.198 36.1218 109.681 36.3946 110.185 36.6211C110.776 36.8986 111.421 37.1673 112.128 37.418C112.836 37.6687 113.561 37.8656 114.268 38.0358C115.504 38.3581 116.731 38.6536 117.957 38.9311C119.184 39.2087 120.285 39.4147 121.288 39.6474C122.524 39.9608 123.133 40.5428 123.079 41.2949C123.079 41.4487 123.061 41.602 123.025 41.7516C123.025 41.8859 122.953 42.056 122.9 42.244C122.542 43.2194 121.959 44.0966 121.198 44.8048C120.304 45.6963 119.292 46.4614 118.19 47.0791C116.874 47.7916 115.48 48.3504 114.035 48.7445C112.517 49.1673 110.947 49.3812 109.371 49.3802C107.96 49.4465 106.57 49.0121 105.449 48.1535C105.54 48.078 105.643 48.0175 105.753 47.9745C105.368 47.7066 105.059 47.3423 104.858 46.9179C104.67 46.5079 104.575 46.0615 104.58 45.6107C104.579 45.2275 104.64 44.8466 104.759 44.4825C104.872 44.1 105.045 43.7374 105.27 43.408C105.724 42.7288 106.387 42.2164 107.159 41.9486V41.6889C107.383 41.6262 107.633 41.5367 107.902 41.4382L108.708 41.1517L109.478 40.9189C109.688 40.8595 109.905 40.8264 110.123 40.8204C110.359 40.8236 110.593 40.8567 110.821 40.9189C111.081 40.9726 111.206 41.0801 111.206 41.2323C111.198 41.3696 111.162 41.5039 111.1 41.627C111.039 41.7501 110.953 41.8595 110.848 41.9486C110.606 42.1903 110.338 42.441 110.042 42.7186C109.765 42.9986 109.507 43.2978 109.272 43.614C109.052 43.9287 108.936 44.3044 108.941 44.6884C108.919 44.9114 108.957 45.1361 109.052 45.3393C109.146 45.5424 109.293 45.7165 109.478 45.8435C109.968 46.0793 110.511 46.1871 111.054 46.1569C111.816 46.1451 112.574 46.0581 113.319 45.8972C114.138 45.7395 114.941 45.5087 115.719 45.2078C116.391 44.9606 117.027 44.6232 117.608 44.2049C117.825 44.0705 118.008 43.8871 118.142 43.6694C118.275 43.4518 118.356 43.2059 118.378 42.9514C118.364 42.7768 118.305 42.6089 118.206 42.4643C118.107 42.3198 117.972 42.2037 117.814 42.1276C117.375 41.8311 116.895 41.5989 116.39 41.4382C115.742 41.2136 115.081 41.0253 114.412 40.8741C113.686 40.704 112.952 40.5428 112.218 40.4085L110.132 39.9787C109.478 39.8355 108.941 39.7012 108.502 39.5669C107.186 39.1969 105.915 38.6803 104.715 38.0268C104.379 37.8891 104.084 37.669 103.856 37.3869C103.628 37.1048 103.474 36.7698 103.41 36.4128C103.346 36.0559 103.373 35.6884 103.488 35.3446C103.603 35.0007 103.803 34.6914 104.07 34.4453C104.549 33.9221 105.108 33.4779 105.726 33.1291C106.39 32.7727 107.093 32.4962 107.822 32.3053C108.422 32.1191 109.046 32.0167 109.675 32.0009C110.483 32.0077 111.285 32.1468 112.048 32.4128L114.761 33.2813Z" fill="#FBAA34"/>
</g>
<path d="M65.1682 15.4352C65.1682 15.1654 65.0402 14.9303 64.7843 14.7297C64.5284 14.5291 64.1964 14.3631 63.7883 14.2317C63.3872 14.1003 62.9376 13.962 62.4396 13.8167C61.9486 13.6646 61.4575 13.4744 60.9664 13.2461C60.4823 13.0179 60.0362 12.7447 59.6281 12.4265C59.227 12.1084 58.8984 11.6796 58.6425 11.1401C58.3866 10.6006 58.2587 9.97811 58.2587 9.27264C58.2587 8.05535 58.7843 6.99022 59.8356 6.07725C60.8938 5.15737 62.246 4.69742 63.8921 4.69742C64.5699 4.69742 65.2097 4.77351 65.8114 4.92567C66.4131 5.07091 66.9042 5.24728 67.2846 5.45477C67.6719 5.66227 68.0108 5.86976 68.3013 6.07725C68.5918 6.27783 68.7924 6.45765 68.903 6.61673L69.1002 6.82422L66.7555 9.27264C66.6863 9.18964 66.5826 9.08589 66.4443 8.9614C66.3128 8.82999 66.0327 8.65362 65.6039 8.43229C65.182 8.21097 64.7532 8.1003 64.3175 8.1003C63.861 8.1003 63.4806 8.22826 63.1762 8.48417C62.8719 8.74007 62.7198 9.03748 62.7198 9.37638C62.7198 9.64613 62.8477 9.88128 63.1036 10.0819C63.3595 10.2755 63.6881 10.4415 64.0892 10.5798C64.4973 10.7113 64.9434 10.853 65.4275 11.0052C65.9186 11.1504 66.4097 11.3372 66.9007 11.5654C67.3987 11.7937 67.8483 12.0669 68.2494 12.385C68.6575 12.7032 68.9895 13.132 69.2454 13.6715C69.5013 14.211 69.6293 14.8334 69.6293 15.5389C69.6293 16.9153 69.0863 18.0738 68.0004 19.0144C66.9146 19.9551 65.4725 20.4254 63.6742 20.4254C62.9411 20.4254 62.2322 20.3355 61.5474 20.1556C60.8696 19.9827 60.3094 19.7718 59.8667 19.5228C59.431 19.2738 59.0437 19.0248 58.7048 18.7758C58.3659 18.5268 58.1169 18.3124 57.9578 18.1326L57.7296 17.8732L60.0639 15.4352C60.0915 15.4767 60.1399 15.532 60.2091 15.6012C60.2852 15.6703 60.427 15.7983 60.6345 15.985C60.8489 16.1718 61.0736 16.3378 61.3088 16.483C61.544 16.6213 61.8379 16.7458 62.1907 16.8565C62.5434 16.9672 62.8961 17.0225 63.2489 17.0225C63.816 17.0225 64.276 16.8669 64.6287 16.5556C64.9883 16.2444 65.1682 15.8709 65.1682 15.4352ZM80.1388 5.12278H84.4961L79.1843 14.6882V20H75.1486V14.6882L69.8368 5.12278H74.1941L77.1716 10.86L80.1388 5.12278ZM96.0846 5.12278H100.12V20H96.6344L90.2437 11.7107V20H86.2079V5.12278H89.7146L96.0846 13.4121V5.12278ZM107.569 16.5971H115.215V20H103.534V5.12278H115.008V8.52566H107.569V10.86H113.306V14.0553H107.569V16.5971ZM117.768 20V5.12278H124.781C126.351 5.12278 127.644 5.61385 128.661 6.59598C129.685 7.5712 130.196 8.78157 130.196 10.2271C130.196 10.8219 130.106 11.3787 129.927 11.8974C129.754 12.4092 129.543 12.8277 129.294 13.1528C129.045 13.4709 128.796 13.7441 128.547 13.9723C128.298 14.1937 128.09 14.3458 127.924 14.4288L127.644 14.5845L130.725 20H126.482L123.93 15.321H121.803V20H117.768ZM125.715 11.2853C126.012 11.0017 126.161 10.649 126.161 10.2271C126.161 9.79829 126.012 9.44555 125.715 9.16889C125.417 8.88532 125.033 8.74353 124.563 8.74353H121.803V11.7107H124.563C125.033 11.7107 125.417 11.5689 125.715 11.2853ZM140.498 20.4254C138.188 20.4254 136.227 19.6542 134.616 18.1118C133.011 16.5625 132.209 14.7124 132.209 12.5614C132.209 10.4104 133.011 8.56371 134.616 7.02134C136.227 5.47206 138.188 4.69742 140.498 4.69742C141.294 4.69742 142.051 4.80117 142.77 5.00866C143.49 5.21616 144.081 5.46515 144.544 5.75564C145.015 6.04613 145.423 6.33662 145.769 6.62711C146.121 6.9176 146.374 7.16659 146.526 7.37408L146.765 7.67494L144.316 10.2271C144.275 10.1718 144.219 10.1026 144.15 10.0196C144.081 9.9297 143.922 9.77754 143.673 9.56313C143.424 9.3418 143.165 9.14814 142.895 8.98215C142.625 8.80924 142.269 8.65708 141.826 8.52566C141.391 8.38734 140.948 8.31817 140.498 8.31817C139.281 8.31817 138.268 8.72278 137.459 9.532C136.649 10.3343 136.245 11.3441 136.245 12.5614C136.245 13.7787 136.649 14.7919 137.459 15.6012C138.268 16.4104 139.281 16.815 140.498 16.815C141.01 16.815 141.477 16.7389 141.899 16.5868C142.321 16.4277 142.618 16.2617 142.791 16.0888L143.04 15.8605V14.2628H140.706V11.7107H147.086V17.4478C147.031 17.5308 146.938 17.6415 146.806 17.7798C146.675 17.9112 146.402 18.1499 145.987 18.4957C145.572 18.8346 145.125 19.1355 144.648 19.3983C144.171 19.6611 143.559 19.8963 142.812 20.1038C142.065 20.3182 141.294 20.4254 140.498 20.4254ZM158.426 5.12278H162.783L157.471 14.6882V20H153.436V14.6882L148.124 5.12278H152.481L155.459 10.86L158.426 5.12278ZM176.073 20H168.956V5.12278H175.648C177.176 5.12278 178.407 5.51356 179.341 6.29512C180.275 7.07667 180.742 7.99656 180.742 9.05477C180.742 9.46284 180.676 9.85362 180.544 10.2271C180.413 10.5937 180.254 10.8876 180.067 11.1089C179.88 11.3303 179.694 11.5239 179.507 11.6899C179.327 11.849 179.168 11.9631 179.03 12.0323L178.833 12.136C178.902 12.1637 178.995 12.2052 179.113 12.2605C179.237 12.3089 179.452 12.43 179.756 12.6236C180.06 12.8104 180.33 13.0248 180.565 13.2669C180.8 13.5089 181.011 13.8409 181.198 14.2628C181.392 14.6847 181.489 15.1447 181.489 15.6427C181.489 16.8046 180.98 17.8213 179.963 18.6928C178.954 19.5643 177.657 20 176.073 20ZM172.992 16.815H175.751C176.222 16.815 176.606 16.6732 176.903 16.3896C177.2 16.1061 177.349 15.7533 177.349 15.3314C177.349 14.9026 177.2 14.5464 176.903 14.2628C176.606 13.9793 176.222 13.8375 175.751 13.8375H172.992V16.815ZM175.222 8.31817H172.992V10.86H175.222C175.644 10.86 175.98 10.7458 176.229 10.5176C176.478 10.2824 176.602 9.97466 176.602 9.59425C176.602 9.20693 176.478 8.89915 176.229 8.67091C175.98 8.43575 175.644 8.31817 175.222 8.31817ZM188.782 15.9539C189.328 16.528 189.978 16.815 190.732 16.815C191.486 16.815 192.133 16.528 192.672 15.9539C193.219 15.3798 193.492 14.6744 193.492 13.8375V5.12278H197.528V13.8375C197.528 15.7049 196.885 17.2715 195.598 18.5372C194.312 19.796 192.69 20.4254 190.732 20.4254C188.775 20.4254 187.153 19.796 185.867 18.5372C184.58 17.2715 183.937 15.7049 183.937 13.8375V5.12278H187.973V13.8375C187.973 14.6744 188.242 15.3798 188.782 15.9539ZM206.989 15.4352C206.989 15.1654 206.861 14.9303 206.606 14.7297C206.35 14.5291 206.018 14.3631 205.61 14.2317C205.208 14.1003 204.759 13.962 204.261 13.8167C203.77 13.6646 203.279 13.4744 202.788 13.2461C202.304 13.0179 201.857 12.7447 201.449 12.4265C201.048 12.1084 200.72 11.6796 200.464 11.1401C200.208 10.6006 200.08 9.97811 200.08 9.27264C200.08 8.05535 200.606 6.99022 201.657 6.07725C202.715 5.15737 204.067 4.69742 205.713 4.69742C206.391 4.69742 207.031 4.77351 207.633 4.92567C208.234 5.07091 208.725 5.24728 209.106 5.45477C209.493 5.66227 209.832 5.86976 210.123 6.07725C210.413 6.27783 210.614 6.45765 210.724 6.61673L210.921 6.82422L208.577 9.27264C208.508 9.18964 208.404 9.08589 208.265 8.9614C208.134 8.82999 207.854 8.65362 207.425 8.43229C207.003 8.21097 206.574 8.1003 206.139 8.1003C205.682 8.1003 205.302 8.22826 204.997 8.48417C204.693 8.74007 204.541 9.03748 204.541 9.37638C204.541 9.64613 204.669 9.88128 204.925 10.0819C205.181 10.2755 205.509 10.4415 205.91 10.5798C206.319 10.7113 206.765 10.853 207.249 11.0052C207.74 11.1504 208.231 11.3372 208.722 11.5654C209.22 11.7937 209.67 12.0669 210.071 12.385C210.479 12.7032 210.811 13.132 211.067 13.6715C211.323 14.211 211.451 14.8334 211.451 15.5389C211.451 16.9153 210.908 18.0738 209.822 19.0144C208.736 19.9551 207.294 20.4254 205.495 20.4254C204.762 20.4254 204.053 20.3355 203.369 20.1556C202.691 19.9827 202.131 19.7718 201.688 19.5228C201.252 19.2738 200.865 19.0248 200.526 18.7758C200.187 18.5268 199.938 18.3124 199.779 18.1326L199.551 17.8732L201.885 15.4352C201.913 15.4767 201.961 15.532 202.03 15.6012C202.106 15.6703 202.248 15.7983 202.456 15.985C202.67 16.1718 202.895 16.3378 203.13 16.483C203.365 16.6213 203.659 16.7458 204.012 16.8565C204.365 16.9672 204.717 17.0225 205.07 17.0225C205.637 17.0225 206.097 16.8669 206.45 16.5556C206.81 16.2444 206.989 15.8709 206.989 15.4352ZM213.795 20V5.12278H217.831V20H213.795ZM231.1 5.12278H235.136V20H231.65L225.259 11.7107V20H221.223V5.12278H224.73L231.1 13.4121V5.12278ZM242.585 16.5971H250.231V20H238.549V5.12278H250.023V8.52566H242.585V10.86H248.322V14.0553H242.585V16.5971ZM258.946 15.4352C258.946 15.1654 258.818 14.9303 258.562 14.7297C258.306 14.5291 257.974 14.3631 257.566 14.2317C257.165 14.1003 256.715 13.962 256.217 13.8167C255.726 13.6646 255.235 13.4744 254.744 13.2461C254.26 13.0179 253.814 12.7447 253.406 12.4265C253.004 12.1084 252.676 11.6796 252.42 11.1401C252.164 10.6006 252.036 9.97811 252.036 9.27264C252.036 8.05535 252.562 6.99022 253.613 6.07725C254.671 5.15737 256.023 4.69742 257.669 4.69742C258.347 4.69742 258.987 4.77351 259.589 4.92567C260.191 5.07091 260.682 5.24728 261.062 5.45477C261.449 5.66227 261.788 5.86976 262.079 6.07725C262.369 6.27783 262.57 6.45765 262.68 6.61673L262.878 6.82422L260.533 9.27264C260.464 9.18964 260.36 9.08589 260.222 8.9614C260.09 8.82999 259.81 8.65362 259.381 8.43229C258.959 8.21097 258.531 8.1003 258.095 8.1003C257.638 8.1003 257.258 8.22826 256.954 8.48417C256.649 8.74007 256.497 9.03748 256.497 9.37638C256.497 9.64613 256.625 9.88128 256.881 10.0819C257.137 10.2755 257.465 10.4415 257.867 10.5798C258.275 10.7113 258.721 10.853 259.205 11.0052C259.696 11.1504 260.187 11.3372 260.678 11.5654C261.176 11.7937 261.626 12.0669 262.027 12.385C262.435 12.7032 262.767 13.132 263.023 13.6715C263.279 14.211 263.407 14.8334 263.407 15.5389C263.407 16.9153 262.864 18.0738 261.778 19.0144C260.692 19.9551 259.25 20.4254 257.452 20.4254C256.718 20.4254 256.01 20.3355 255.325 20.1556C254.647 19.9827 254.087 19.7718 253.644 19.5228C253.208 19.2738 252.821 19.0248 252.482 18.7758C252.143 18.5268 251.894 18.3124 251.735 18.1326L251.507 17.8732L253.841 15.4352C253.869 15.4767 253.917 15.532 253.987 15.6012C254.063 15.6703 254.204 15.7983 254.412 15.985C254.626 16.1718 254.851 16.3378 255.086 16.483C255.321 16.6213 255.615 16.7458 255.968 16.8565C256.321 16.9672 256.674 17.0225 257.026 17.0225C257.593 17.0225 258.053 16.8669 258.406 16.5556C258.766 16.2444 258.946 15.8709 258.946 15.4352ZM271.914 15.4352C271.914 15.1654 271.786 14.9303 271.53 14.7297C271.274 14.5291 270.942 14.3631 270.534 14.2317C270.133 14.1003 269.683 13.962 269.185 13.8167C268.694 13.6646 268.203 13.4744 267.712 13.2461C267.228 13.0179 266.782 12.7447 266.374 12.4265C265.973 12.1084 265.644 11.6796 265.388 11.1401C265.132 10.6006 265.004 9.97811 265.004 9.27264C265.004 8.05535 265.53 6.99022 266.581 6.07725C267.64 5.15737 268.992 4.69742 270.638 4.69742C271.316 4.69742 271.955 4.77351 272.557 4.92567C273.159 5.07091 273.65 5.24728 274.03 5.45477C274.418 5.66227 274.757 5.86976 275.047 6.07725C275.337 6.27783 275.538 6.45765 275.649 6.61673L275.846 6.82422L273.501 9.27264C273.432 9.18964 273.328 9.08589 273.19 8.9614C273.059 8.82999 272.778 8.65362 272.35 8.43229C271.928 8.21097 271.499 8.1003 271.063 8.1003C270.607 8.1003 270.226 8.22826 269.922 8.48417C269.618 8.74007 269.465 9.03748 269.465 9.37638C269.465 9.64613 269.593 9.88128 269.849 10.0819C270.105 10.2755 270.434 10.4415 270.835 10.5798C271.243 10.7113 271.689 10.853 272.173 11.0052C272.664 11.1504 273.155 11.3372 273.646 11.5654C274.144 11.7937 274.594 12.0669 274.995 12.385C275.403 12.7032 275.735 13.132 275.991 13.6715C276.247 14.211 276.375 14.8334 276.375 15.5389C276.375 16.9153 275.832 18.0738 274.746 19.0144C273.66 19.9551 272.218 20.4254 270.42 20.4254C269.687 20.4254 268.978 20.3355 268.293 20.1556C267.615 19.9827 267.055 19.7718 266.612 19.5228C266.177 19.2738 265.789 19.0248 265.45 18.7758C265.112 18.5268 264.863 18.3124 264.703 18.1326L264.475 17.8732L266.81 15.4352C266.837 15.4767 266.886 15.532 266.955 15.6012C267.031 15.6703 267.173 15.7983 267.38 15.985C267.595 16.1718 267.819 16.3378 268.055 16.483C268.29 16.6213 268.584 16.7458 268.936 16.8565C269.289 16.9672 269.642 17.0225 269.995 17.0225C270.562 17.0225 271.022 16.8669 271.374 16.5556C271.734 16.2444 271.914 15.8709 271.914 15.4352Z" fill="white"/>
<defs>
<filter id="filter0_d" x="53.3042" y="26.4674" width="27.9311" height="32.0946" filterUnits="userSpaceOnUse" color-interpolation-filters="sRGB">
<feFlood flood-opacity="0" result="BackgroundImageFix"/>
<feColorMatrix in="SourceAlpha" type="matrix" values="0 0 0 0 0 0 0 0 0 0 0 0 0 0 0 0 0 0 127 0" result="hardAlpha"/>
<feOffset dy="4"/>
<feGaussianBlur stdDeviation="2"/>
<feComposite in2="hardAlpha" operator="out"/>
<feColorMatrix type="matrix" values="0 0 0 0 0 0 0 0 0 0 0 0 0 0 0 0 0 0 0.25 0"/>
<feBlend mode="normal" in2="BackgroundImageFix" result="effect1_dropShadow"/>
<feBlend mode="normal" in="SourceGraphic" in2="effect1_dropShadow" result="shape"/>
</filter>
<filter id="filter1_d" x="72.3643" y="28.5895" width="14.351" height="27.9759" filterUnits="userSpaceOnUse" color-interpolation-filters="sRGB">
<feFlood flood-opacity="0" result="BackgroundImageFix"/>
<feColorMatrix in="SourceAlpha" type="matrix" values="0 0 0 0 0 0 0 0 0 0 0 0 0 0 0 0 0 0 127 0" result="hardAlpha"/>
<feOffset dy="4"/>
<feGaussianBlur stdDeviation="2"/>
<feComposite in2="hardAlpha" operator="out"/>
<feColorMatrix type="matrix" values="0 0 0 0 0 0 0 0 0 0 0 0 0 0 0 0 0 0 0.25 0"/>
<feBlend mode="normal" in2="BackgroundImageFix" result="effect1_dropShadow"/>
<feBlend mode="normal" in="SourceGraphic" in2="effect1_dropShadow" result="shape"/>
</filter>
<filter id="filter2_d" x="80.4874" y="26.2615" width="27.3353" height="31.5843" filterUnits="userSpaceOnUse" color-interpolation-filters="sRGB">
<feFlood flood-opacity="0" result="BackgroundImageFix"/>
<feColorMatrix in="SourceAlpha" type="matrix" values="0 0 0 0 0 0 0 0 0 0 0 0 0 0 0 0 0 0 127 0" result="hardAlpha"/>
<feOffset dy="4"/>
<feGaussianBlur stdDeviation="2"/>
<feComposite in2="hardAlpha" operator="out"/>
<feColorMatrix type="matrix" values="0 0 0 0 0 0 0 0 0 0 0 0 0 0 0 0 0 0 0.25 0"/>
<feBlend mode="normal" in2="BackgroundImageFix" result="effect1_dropShadow"/>
<feBlend mode="normal" in="SourceGraphic" in2="effect1_dropShadow" result="shape"/>
</filter>
<filter id="filter3_d" x="99.376" y="32.0009" width="27.706" height="25.3859" filterUnits="userSpaceOnUse" color-interpolation-filters="sRGB">
<feFlood flood-opacity="0" result="BackgroundImageFix"/>
<feColorMatrix in="SourceAlpha" type="matrix" values="0 0 0 0 0 0 0 0 0 0 0 0 0 0 0 0 0 0 127 0" result="hardAlpha"/>
<feOffset dy="4"/>
<feGaussianBlur stdDeviation="2"/>
<feComposite in2="hardAlpha" operator="out"/>
<feColorMatrix type="matrix" values="0 0 0 0 0 0 0 0 0 0 0 0 0 0 0 0 0 0 0.25 0"/>
<feBlend mode="normal" in2="BackgroundImageFix" result="effect1_dropShadow"/>
<feBlend mode="normal" in="SourceGraphic" in2="effect1_dropShadow" result="shape"/>
</filter>
</defs>
</svg>
